<svg id="icons" enable-background="new 0 0 64 64" height="512" viewBox="0 0 64 64" width="512" xmlns="http://www.w3.org/2000/svg"><path d="m29 3v10h-4v-10c0-1.1.9-2 2-2 1.11 0 2 .9 2 2z" fill="#656d78"/><path d="m22.01 13h2.99 4 6 4 3c1.1 0 2 .9 2 2.01v5.99h-24v-5.99c0-1.11.9-2.01 2.01-2.01z" fill="#ccd1d9"/><path d="m39 3v10h-4v-10c0-1.1.9-2 2-2 1.11 0 2 .9 2 2z" fill="#656d78"/><path d="m55 27c.55 0 1 .45 1 1v28c0 .55-.45 1-1 1h-3.002c-.55 0-1-.45-1-1v-28c0-.55.45-1 1-1z" fill="#ccd1d9"/><path d="m12.002 27c.55 0 1 .45 1 1v28c0 .55-.45 1-1 1h-3.002c-.55 0-1-.45-1-1v-28c0-.55.45-1 1-1z" fill="#ccd1d9"/><path d="m32 57c-8.28 0-15-6.72-15-15s6.72-15 15-15 15 6.72 15 15-6.72 15-15 15zm-12-15c0 6.62 5.38 12 12 12s12-5.38 12-12c0-6.63-5.38-12-12-12s-12 5.37-12 12z" fill="#f5f7fa"/><path d="m37 40c1.11 0 2 .89 2 2 0 1.1-.89 2-2 2-1.1 0-2-.9-2-2 0-1.11.9-2 2-2z" fill="#656d78"/><path d="m27 40c1.11 0 2 .89 2 2 0 1.1-.89 2-2 2-1.1 0-2-.9-2-2 0-1.11.9-2 2-2z" fill="#656d78"/><path d="m32 30c6.62 0 12 5.37 12 12 0 6.62-5.38 12-12 12s-12-5.38-12-12c0-6.63 5.38-12 12-12zm7 12c0-1.11-.89-2-2-2-1.1 0-2 .89-2 2 0 1.1.9 2 2 2 1.11 0 2-.9 2-2zm-10 0c0-1.11-.89-2-2-2-1.1 0-2 .89-2 2 0 1.1.9 2 2 2 1.11 0 2-.9 2-2z" fill="#ccd1d9"/><path d="m53 59c0 2.2-1.8 4-4 4h-34c-2.2 0-4-1.8-4-4v-2-30-2c0-2.2 1.8-4 4-4h5 24 5c2.2 0 4 1.8 4 4v2 30zm-6-17c0-8.28-6.72-15-15-15s-15 6.72-15 15 6.72 15 15 15 15-6.72 15-15z" fill="#e6e9ed"/></svg>