<svg height="464pt" viewBox="-80 0 464 464" width="464pt" xmlns="http://www.w3.org/2000/svg"><path d="m304 224h-304l48-224h208zm0 0" fill="#4398d1"/><path d="m63.601562 38.320312 3.4375-15.996093 15.640626 3.359375-3.433594 15.996094zm0 0" fill="#5daade"/><path d="m48.167969 110.308594 12.027343-55.992188 15.644532 3.359375-12.027344 55.996094zm0 0" fill="#5daade"/><path d="m136 224h32v176h-32zm0 0" fill="#fdb62f"/><path d="m200 216h16v104h-16zm0 0" fill="#e3e3e1"/><path d="m208 344c-8.835938 0-16-7.164062-16-16s7.164062-16 16-16 16 7.164062 16 16-7.164062 16-16 16zm0-16" fill="#4398d1"/><path d="m88 432h128c17.671875 0 32 14.328125 32 32h-192c0-17.671875 14.328125-32 32-32zm0 0" fill="#fdb62f"/><path d="m128 400h48c17.671875 0 32 14.328125 32 32h-112c0-17.671875 14.328125-32 32-32zm0 0" fill="#fdb62f"/><path d="m216 432h-8c0-17.671875-14.328125-32-32-32h-16c17.671875 0 32 14.328125 32 32h8c17.671875 0 32 14.328125 32 32h16c0-17.671875-14.328125-32-32-32zm0 0" fill="#faa400"/><path d="m267.664062 54.398438c-63.769531 83.722656-155.664062 138.570312-220.921874 169.601562h257.257812zm0 0" fill="#4091c7"/><path d="m136 224h32v16h-32zm0 0" fill="#faa400"/><path d="m200 224h16v16h-16zm0 0" fill="#cfcfcd"/></svg>