<svg height="428pt" viewBox="-15 0 428 428.10067" width="428pt" xmlns="http://www.w3.org/2000/svg"><path d="m349.449219 168.898438h-.300781l-101.097657-103.597657c8.074219-13.261719 8.363281-29.851562.753907-43.386719-7.605469-13.539062-21.925782-21.914062-37.453126-21.914062h-.101562c-11.421875-.0429688-22.394531 4.453125-30.5 12.5l-9.398438 9.300781c-40.230468-15.902343-86.0625-6.4375-116.703124 24.097657-1.878907 1.882812-2.925782 4.441406-2.898438 7.101562.019531 2.652344 1.058594 5.195312 2.898438 7.101562l32 32c-14.167969 21.25-11.363282 49.546876 6.695312 67.605469 18.058594 18.058594 46.355469 20.863281 67.605469 6.691407l32 32c1.875 1.890624 4.4375 2.9375 7.101562 2.902343 2.652344-.011719 5.199219-1.050781 7.097657-2.902343 19.527343-19.671876 30.765624-46.085938 31.402343-73.796876l67.800781 69.699219c-4.167968 7.351563-6.371093 15.648438-6.402343 24.097657-.359375 11 3.183593 21.765624 10 30.402343l-111.597657 110.300781h-36.402343c-16.5 0-30.5 13.699219-30.5 30.199219v29c0 5.5 4.902343 9.800781 10.5 9.800781h165.902343c2.585938.019532 5.070313-1.011718 6.882813-2.859374 1.808594-1.847657 2.792969-4.355469 2.714844-6.941407v-29c0-16.5-13.097657-30.199219-29.597657-30.199219h-21.101562l93.398438-92.300781c24.664062-5.476562 41.253906-28.632812 38.507812-53.742187-2.742188-25.113282-23.945312-44.136719-49.207031-44.160156zm-30 10.203124-85.300781-87.703124c-.796876-2.597657-1.597657-5.199219-2.597657-7.699219l3.199219-3.199219 91.898438 94.101562c-2.566407 1.210938-4.984376 2.722657-7.199219 4.5zm-212-33.601562c-10.253907-10.265625-12.753907-25.957031-6.199219-38.898438l45.101562 45.097657c-12.9375 6.609375-28.660156 4.101562-38.902343-6.199219zm92.101562 31.199219-123.199219-123.300781c26.441407-20.972657 62.511719-25.085938 93-10.597657 3.839844 1.796875 8.398438.996094 11.398438-2l14.199219-14.101562c4.308593-4.339844 10.1875-6.753907 16.300781-6.699219h.101562c6.117188-.074219 12.003907 2.34375 16.296876 6.699219 8.925781 9.011719 8.878906 23.542969-.097657 32.5l-14.902343 14.902343c-2.953126 2.941407-3.753907 7.417969-2 11.199219 13.574218 30.160157 9.300781 65.363281-11.097657 91.398438zm98 212.601562v18.800781h-146v-18.800781c0-5.5 5-10.199219 10.5-10.199219h125.898438c5.5 0 9.601562 4.699219 9.601562 10.199219zm-70.800781-30.199219 98.398438-97.402343c2.609374 1.371093 5.316406 2.542969 8.101562 3.5l-94.898438 93.902343zm122.699219-111c-8.203125-.035156-16.050781-3.347656-21.800781-9.203124-5.238282-5.308594-8.0625-12.542969-7.796876-20v-.398438c0-16.347656 13.25-29.601562 29.597657-29.601562 16.347656 0 29.601562 13.253906 29.601562 29.601562s-13.253906 29.601562-29.601562 29.601562zm0 0"/><path d="m132.550781 209.398438c0-5.519532-4.476562-10-10-10-5.523437 0-10 4.480468-10 10v36.300781c0 5.523437 4.476563 10 10 10 5.523438 0 10-4.476563 10-10zm0 0"/><path d="m56.351562 147.101562c-.015624-5.515624-4.484374-9.984374-10-10h-36.300781c-5.523437 0-9.9999998 4.476563-9.9999998 10 0 5.523438 4.4765628 10 9.9999998 10h36.300781c2.652344.007813 5.203126-1.042968 7.082032-2.917968 1.875-1.878906 2.925781-4.429688 2.917968-7.082032zm0 0"/><path d="m57.050781 190.800781-27.101562 25.597657c-2.984375 2.808593-3.941407 7.15625-2.417969 10.957031s5.222656 6.277343 9.320312 6.246093c2.554688-.003906 5.019532-.96875 6.898438-2.703124l27.101562-25.597657c1.925782-1.816406 3.046876-4.324219 3.125-6.96875.074219-2.644531-.90625-5.210937-2.726562-7.132812-3.820312-4.007813-10.160156-4.1875-14.199219-.398438zm0 0"/></svg>